<svg width="159" height="42" viewBox="0 0 159 42" fill="none"><path d="M8.20374 0H6.55447C2.87111 0 0 3.1586 0 6.37328V13.6744C0 17.4884 0.587126 18.6887 3.28093 21.8489C4.29939 23.0661 5.13612 24.0164 5.81448 24.7869L5.81631 24.789C5.99422 24.991 6.16245 25.1807 6.3211 25.3596C7.34114 26.5097 7.96505 27.2131 8.21813 27.8877L8.21801 27.9074V39.5413H6.60133V27.8969H0.0673617V35.5249C0.0673617 38.6851 2.82052 41.9326 6.66881 41.9326H8.15076C11.8891 41.9326 14.5809 38.6851 14.5809 35.5249V30.6212C14.5809 26.6437 14.2757 25.0636 11.9118 22.1214C10.9743 21.0675 10.1635 20.2006 9.47549 19.4651L9.25541 19.23C7.87353 17.754 6.96852 16.7874 6.61758 15.8974H6.60133V2.42502H8.21801V15.8555H14.7458V6.37487C14.7458 3.16019 12.107 0 8.20374 0Z" fill="#A77EFF"></path> <path fill-rule="evenodd" clip-rule="evenodd" d="M40.4169 41.7514C36.5137 41.7514 33.9502 38.5459 33.9502 35.3857V6.45385C33.9502 3.23917 36.5217 0.0673828 40.4249 0.0673828H42.0192C45.8675 0.0673828 48.378 3.23917 48.433 6.45385V35.352C48.433 38.5122 45.8819 41.7514 42.0336 41.7514H40.4169ZM41.9662 2.47951H40.4843V39.5958H41.9662V2.47951Z" fill="#A77EFF"></path> <path d="M147.185 0.134766H158.334L158.345 2.29034H153.652V19.5349H158.345V21.96L153.652 21.9936V39.4066H158.345V41.6245H147.185V0.134766Z" fill="#A77EFF"></path> <path d="M99.4258 0.269409H110.574L110.586 2.42498H105.893V19.6696H110.586V22.0946L105.893 22.1283V39.5413H110.586V41.7591H99.4258V0.269409Z" fill="#A77EFF"></path> <path fill-rule="evenodd" clip-rule="evenodd" d="M113.033 41.6632L119.528 41.6968L119.634 22.162H121.116V41.6968H127.583V23.9164C127.583 21.9004 126.887 20.5927 125.787 20.2113C126.887 19.6665 127.583 18.3561 127.583 16.5036V6.58711C127.583 3.4814 125.032 0.269409 121.184 0.269409H113.033V41.6632ZM121.116 2.49234H119.634V19.7369H121.116V2.49234Z" fill="#A77EFF"></path> <path fill-rule="evenodd" clip-rule="evenodd" d="M57.3535 41.6296L50.8582 41.5959V0.202148H59.0089C62.8572 0.202148 65.4083 3.41414 65.4083 6.51985V16.4363C65.4083 18.2888 64.712 19.5992 63.6125 20.1441C64.712 20.5255 65.4083 21.8331 65.4083 23.8491V41.6296H58.9416V22.0947H57.4596L57.3535 41.6296ZM57.4596 2.42508H58.9416V19.6697H57.4596V2.42508Z" fill="#A77EFF"></path> <path d="M25.0588 0.269409H31.5255V41.557H25.0588V22.0946H23.5768V41.557H17.1774L17.0427 0.269409H23.5768V19.6696H25.0588V0.269409Z" fill="#A77EFF"></path> <path d="M97.001 0.269409H90.2311L90.8977 20.4127L92.252 39.5413H91.0731L88.2439 0.269409H81.373L84.4043 41.6968H94.1274L97.001 0.269409Z" fill="#A77EFF"></path> <path d="M65.8125 0.269409H80.5459V2.41209H76.7251V41.684H70.2584V2.41209H65.8125V0.269409Z" fill="#A77EFF"></path> <path d="M136.563 0.0673828H138.212C142.115 0.0673828 144.754 3.22758 144.754 6.44226V15.9228H138.226V2.4924H136.61V15.9647H136.626C136.977 16.8548 137.882 17.8214 139.263 19.2974L139.484 19.5325C140.171 20.268 140.982 21.1349 141.92 22.1887C144.284 25.131 144.76 26.7111 144.76 30.6886V35.5923C144.76 38.7525 141.897 42 138.159 42H136.677C132.829 42 130.075 38.7525 130.075 35.5923V27.9643H136.61V39.6087H138.226L138.226 27.9551C137.973 27.2805 137.349 26.5767 136.329 25.4267C136.17 25.248 136.002 25.0582 135.824 24.8563L135.823 24.8546C135.144 24.0841 134.308 23.1337 133.289 21.9163C130.595 18.7561 130.008 17.5558 130.008 13.7418V6.44067C130.008 3.22599 132.879 0.0673828 136.563 0.0673828Z" fill="#A77EFF"></path></svg>