<svg width="217" height="153" viewBox="0 0 217 153" fill="none"><path d="M95.2971 8.13831C101.296 0.168017 113.239 0.0960722 119.333 7.99352L210.826 126.556C218.489 136.485 211.408 150.885 198.863 150.885H18.1362C5.67534 150.885 -1.42865 136.655 6.06303 126.701L95.2971 8.13831Z" fill="black"></path> <path fill-rule="evenodd" clip-rule="evenodd" d="M207.584 132.723L113.49 10.7893C110.356 6.72827 104.215 6.76526 101.13 10.8637L9.35837 132.797C5.50602 137.916 9.15901 145.233 15.5666 145.233H201.433C207.884 145.233 211.525 137.829 207.584 132.723ZM119.641 6.04544C113.373 -2.07658 101.091 -2.00259 94.9217 6.19435L3.15013 128.128C-4.55458 138.365 2.75142 153 15.5666 153H201.433C214.335 153 221.616 138.191 213.736 127.979L119.641 6.04544Z" fill="#A77EFF"></path> <path fill-rule="evenodd" clip-rule="evenodd" d="M134.54 75.2725C138.911 70.7573 141.367 64.6334 141.367 58.2479H118.059L94.7518 58.2479C94.7518 58.248 94.7518 58.2481 94.7518 58.2481C88.5709 58.2486 82.6433 60.7852 78.2727 65.2999C73.9017 69.8151 71.4461 75.939 71.4461 82.3244H71.4443C71.4443 88.7098 73.8999 94.8337 78.2709 99.3489C82.642 103.864 88.5703 106.401 94.7519 106.401L94.789 106.401H118.06H141.368C141.368 100.015 138.912 93.8914 134.541 89.3762C130.171 84.8611 124.242 82.3245 118.061 82.3244C118.061 82.3243 118.061 82.3243 118.061 82.3243C124.242 82.3238 130.17 79.7872 134.54 75.2725Z" fill="#A77EFF"></path> <path fill-rule="evenodd" clip-rule="evenodd" d="M107.182 54.3649C107.182 53.9358 106.834 53.588 106.405 53.588V53.588C105.976 53.588 105.628 53.9358 105.628 54.3649V69.8559C105.628 76.2921 100.411 81.5097 93.9744 81.5097H90.8854C90.446 81.5097 90.0898 81.8659 90.0898 82.3053V82.3053C90.0898 82.7447 90.446 83.1009 90.8854 83.1009H93.9744C100.411 83.1009 105.628 88.3185 105.628 94.7547V118.05C105.628 118.479 105.976 118.827 106.405 118.827V118.827C106.834 118.827 107.182 118.479 107.182 118.05V95.92C107.182 88.8402 112.921 83.1009 120.001 83.1009H123.498C123.926 83.1009 124.274 82.7532 124.274 82.3242V82.3242C124.274 81.8953 123.926 81.5476 123.498 81.5476H120.001C112.921 81.5476 107.182 75.8083 107.182 68.7284V54.3649Z" fill="white"></path> <path fill-rule="evenodd" clip-rule="evenodd" d="M134.541 124.429C138.912 120.06 141.368 114.133 141.368 107.954H118.06L94.753 107.954C94.753 107.954 94.753 107.954 94.753 107.954C88.5716 107.954 82.6435 110.409 78.2727 114.778C73.9016 119.148 71.446 125.074 71.446 131.254L94.7536 131.254L118.061 131.254C118.061 131.254 118.061 131.254 118.061 131.253C124.242 131.253 130.171 128.799 134.541 124.429Z" fill="white"></path> <path fill-rule="evenodd" clip-rule="evenodd" d="M134.54 75.2725C138.911 70.7573 141.367 64.6334 141.367 58.2479H118.059L94.7518 58.2479C94.7518 58.248 94.7518 58.2481 94.7518 58.2481C88.5709 58.2486 82.6433 60.7852 78.2727 65.2999C73.9017 69.8151 71.4461 75.939 71.4461 82.3244H71.4443C71.4443 88.7098 73.8999 94.8337 78.2709 99.3489C82.642 103.864 88.5703 106.401 94.7519 106.401L94.789 106.401H118.06H141.368C141.368 100.015 138.912 93.8914 134.541 89.3762C130.171 84.8611 124.242 82.3245 118.061 82.3244C118.061 82.3243 118.061 82.3243 118.061 82.3243C124.242 82.3238 130.17 79.7872 134.54 75.2725Z" fill="#A77EFF"></path> <path fill-rule="evenodd" clip-rule="evenodd" d="M107.182 54.3649C107.182 53.9358 106.834 53.588 106.405 53.588V53.588C105.976 53.588 105.628 53.9358 105.628 54.3649V69.8559C105.628 76.2921 100.411 81.5097 93.9744 81.5097H90.8854C90.446 81.5097 90.0898 81.8659 90.0898 82.3053V82.3053C90.0898 82.7447 90.446 83.1009 90.8854 83.1009H93.9744C100.411 83.1009 105.628 88.3185 105.628 94.7547V118.05C105.628 118.479 105.976 118.827 106.405 118.827V118.827C106.834 118.827 107.182 118.479 107.182 118.05V95.92C107.182 88.8402 112.921 83.1009 120.001 83.1009H123.498C123.926 83.1009 124.274 82.7532 124.274 82.3242V82.3242C124.274 81.8953 123.926 81.5476 123.498 81.5476H120.001C112.921 81.5476 107.182 75.8083 107.182 68.7284V54.3649Z" fill="white"></path> <path fill-rule="evenodd" clip-rule="evenodd" d="M134.541 124.429C138.912 120.06 141.368 114.133 141.368 107.954H118.06L94.753 107.954C94.753 107.954 94.753 107.954 94.753 107.954C88.5716 107.954 82.6435 110.409 78.2727 114.778C73.9016 119.148 71.446 125.074 71.446 131.254L94.7536 131.254L118.061 131.254C118.061 131.254 118.061 131.254 118.061 131.253C124.242 131.253 130.171 128.799 134.541 124.429Z" fill="white"></path></svg>